<svg xmlns="http://www.w3.org/2000/svg" viewBox="0 0 800 600"><rect width="800" height="600" fill="#E9D7B7"/><rect y="430" width="800" height="170" fill="#F7F0E4"/><g fill="#8B5220" opacity=".9"><circle cx="250" cy="200" r="55"/><path d="M150 430c0-90 45-150 100-150s100 60 100 150z"/></g><g fill="#2D6A4F"><circle cx="400" cy="180" r="60"/><path d="M290 430c0-100 50-165 110-165s110 65 110 165z"/></g><g fill="#5A3F2B"><circle cx="550" cy="205" r="52"/><path d="M455 430c0-85 42-142 95-142s95 57 95 142z"/></g><g fill="#F7F0E4"><path d="M220 300h60v130h-60z" opacity=".5"/><path d="M370 285h60v145h-60z" opacity=".5"/><path d="M522 305h56v125h-56z" opacity=".5"/></g><ellipse cx="400" cy="470" rx="160" ry="30" fill="#D9A15E"/></svg>
