<svg xmlns="http://www.w3.org/2000/svg" viewBox="0 0 800 600"><defs><filter id="slate" x="0" y="0" width="100%" height="100%" color-interpolation-filters="sRGB">
<feTurbulence type="fractalNoise" baseFrequency=".012" numOctaves="4" seed="6" result="n"/>
<feDiffuseLighting in="n" surfaceScale="2.2" lighting-color="#fff" result="l"><feDistantLight azimuth="225" elevation="50"/></feDiffuseLighting>
<feComposite in="SourceGraphic" in2="l" operator="arithmetic" k1="0.6" k2="0.4" k3="0" k4="0" result="c"/>
<feComposite in="c" in2="SourceAlpha" operator="in"/></filter><filter id="cuke" x="0" y="0" width="100%" height="100%" color-interpolation-filters="sRGB">
<feTurbulence type="fractalNoise" baseFrequency=".05 .12" numOctaves="3" seed="2" result="n"/>
<feDiffuseLighting in="n" surfaceScale="3.5" lighting-color="#fff" result="l"><feDistantLight azimuth="225" elevation="50"/></feDiffuseLighting>
<feComposite in="SourceGraphic" in2="l" operator="arithmetic" k1="0.75" k2="0.35" k3="0" k4="0" result="c"/>
<feComposite in="c" in2="SourceAlpha" operator="in"/></filter><filter id="sh" x="-20%" y="-20%" width="140%" height="140%"><feGaussianBlur stdDeviation="14"/></filter><filter id="soft" x="-50%" y="-50%" width="200%" height="200%"><feGaussianBlur stdDeviation="1.4"/></filter><radialGradient id="vig" cx="50%" cy="45%" r="75%"><stop offset=".55" stop-color="#000" stop-opacity="0"/><stop offset="1" stop-color="#000" stop-opacity=".45"/></radialGradient><radialGradient id="g1" cx="35%" cy="32%" r="70%"><stop offset="0" stop-color="#b2b958"/><stop offset="1" stop-color="#4f5a19"/></radialGradient><radialGradient id="g2" cx="35%" cy="32%" r="70%"><stop offset="0" stop-color="#9aa64a"/><stop offset="1" stop-color="#3f4a12"/></radialGradient><radialGradient id="k1" cx="35%" cy="32%" r="70%"><stop offset="0" stop-color="#6c5562"/><stop offset="1" stop-color="#1c1418"/></radialGradient><radialGradient id="k2" cx="35%" cy="32%" r="70%"><stop offset="0" stop-color="#7d5a48"/><stop offset="1" stop-color="#2a1813"/></radialGradient><radialGradient id="dish" cx="50%" cy="45%" r="55%"><stop offset="0" stop-color="#e9e3d6"/><stop offset=".85" stop-color="#d7cfbf"/><stop offset="1" stop-color="#a99f8c"/></radialGradient><linearGradient id="cuk" x1="0" x2="0" y1="0" y2="1"><stop offset="0" stop-color="#9caa52"/><stop offset=".5" stop-color="#6f7e2b"/><stop offset="1" stop-color="#4b5719"/></linearGradient><linearGradient id="board" x1="0" x2="1"><stop offset="0" stop-color="#a77446"/><stop offset="1" stop-color="#8a5a32"/></linearGradient><filter id="wood" x="0" y="0" width="100%" height="100%" color-interpolation-filters="sRGB">
<feTurbulence type="fractalNoise" baseFrequency=".008 .18" numOctaves="3" seed="12" result="n"/>
<feDiffuseLighting in="n" surfaceScale="2" lighting-color="#fff" result="l"><feDistantLight azimuth="225" elevation="50"/></feDiffuseLighting>
<feComposite in="SourceGraphic" in2="l" operator="arithmetic" k1="0.7" k2="0.4" k3="0" k4="0" result="c"/>
<feComposite in="c" in2="SourceAlpha" operator="in"/></filter></defs><rect width="800" height="600" fill="#4a4740" filter="url(#slate)"/><rect x="430" y="70" width="330" height="470" rx="26" fill="#000" opacity=".35" filter="url(#sh)" transform="rotate(8 595 305)"/><rect x="420" y="60" width="330" height="470" rx="26" fill="url(#board)" filter="url(#wood)" transform="rotate(8 585 295)"/><g transform="translate(470 150) rotate(64)"><ellipse cx="121.0" cy="8" rx="115.0" ry="30" fill="#000" opacity=".3" filter="url(#soft)"/><rect x="0" y="-28" width="230" height="56" rx="28" fill="url(#cuk)" filter="url(#cuke)"/><rect x="20" y="-20" width="190" height="8" rx="4" fill="#fff" opacity=".22"/></g><g transform="translate(540 140) rotate(70)"><ellipse cx="131.0" cy="8" rx="125.0" ry="30" fill="#000" opacity=".3" filter="url(#soft)"/><rect x="0" y="-28" width="250" height="56" rx="28" fill="url(#cuk)" filter="url(#cuke)"/><rect x="20" y="-20" width="210" height="8" rx="4" fill="#fff" opacity=".22"/></g><g transform="translate(610 160) rotate(76)"><ellipse cx="116.0" cy="8" rx="110.0" ry="30" fill="#000" opacity=".3" filter="url(#soft)"/><rect x="0" y="-28" width="220" height="56" rx="28" fill="url(#cuk)" filter="url(#cuke)"/><rect x="20" y="-20" width="180" height="8" rx="4" fill="#fff" opacity=".22"/></g><g transform="translate(660 200) rotate(82)"><ellipse cx="106.0" cy="8" rx="100.0" ry="30" fill="#000" opacity=".3" filter="url(#soft)"/><rect x="0" y="-28" width="200" height="56" rx="28" fill="url(#cuk)" filter="url(#cuke)"/><rect x="20" y="-20" width="160" height="8" rx="4" fill="#fff" opacity=".22"/></g><g transform="translate(500 470) rotate(-50)" stroke="#5c7a33" stroke-width="2.4" fill="none" stroke-linecap="round"><path d="M0 0C30 -10 60 -10 90 0"/><path d="M12 -0l12 -16M12 0l13 18"/><path d="M21 -0l12 -18M21 0l8 15"/><path d="M30 -0l14 -16M30 0l13 13"/><path d="M39 -0l11 -13M39 0l11 15"/><path d="M48 -0l8 -13M48 0l10 17"/><path d="M57 -0l13 -13M57 0l13 13"/><path d="M66 -0l12 -13M66 0l8 17"/><path d="M75 -0l9 -13M75 0l14 17"/><path d="M84 -0l10 -18M84 0l11 16"/></g><g transform="translate(660 460) rotate(-110)" stroke="#5c7a33" stroke-width="2.4" fill="none" stroke-linecap="round"><path d="M0 0C30 -10 60 -10 90 0"/><path d="M12 -0l9 -18M12 0l12 18"/><path d="M21 -0l13 -14M21 0l10 13"/><path d="M30 -0l9 -12M30 0l10 16"/><path d="M39 -0l8 -16M39 0l10 14"/><path d="M48 -0l13 -15M48 0l10 15"/><path d="M57 -0l12 -12M57 0l14 12"/><path d="M66 -0l12 -17M66 0l8 17"/><path d="M75 -0l10 -15M75 0l8 12"/><path d="M84 -0l9 -18M84 0l9 17"/></g><circle cx="262" cy="318" r="215" fill="#000" opacity=".4" filter="url(#sh)"/><circle cx="250" cy="300" r="210" fill="url(#dish)"/><circle cx="250" cy="302" r="176" fill="#cbc2b0"/><g transform="rotate(151 194 294)"><ellipse cx="197" cy="299" rx="31" ry="23" fill="#000" opacity=".25" filter="url(#soft)"/><ellipse cx="194" cy="294" rx="30" ry="22" fill="url(#g2)"/></g><ellipse cx="185.5" cy="286.0" rx="9.0" ry="4.0" transform="rotate(-25 185.5 286.0)" fill="#fff" opacity="0.5"/><g transform="rotate(51 386 249)"><ellipse cx="389" cy="254" rx="31" ry="23" fill="#000" opacity=".25" filter="url(#soft)"/><ellipse cx="386" cy="249" rx="30" ry="22" fill="url(#k2)"/></g><ellipse cx="376.8" cy="240.6" rx="9.0" ry="4.0" transform="rotate(-25 376.8 240.6)" fill="#fff" opacity="0.5"/><g transform="rotate(130 404 307)"><ellipse cx="407" cy="312" rx="31" ry="23" fill="#000" opacity=".25" filter="url(#soft)"/><ellipse cx="404" cy="307" rx="30" ry="22" fill="url(#g1)"/></g><ellipse cx="395.0" cy="298.9" rx="9.0" ry="4.0" transform="rotate(-25 395.0 298.9)" fill="#fff" opacity="0.5"/><g transform="rotate(75 249 352)"><ellipse cx="252" cy="357" rx="31" ry="23" fill="#000" opacity=".25" filter="url(#soft)"/><ellipse cx="249" cy="352" rx="30" ry="22" fill="url(#k1)"/></g><ellipse cx="239.7" cy="344.3" rx="9.0" ry="4.0" transform="rotate(-25 239.7 344.3)" fill="#fff" opacity="0.5"/><g transform="rotate(140 123 227)"><ellipse cx="126" cy="232" rx="31" ry="23" fill="#000" opacity=".25" filter="url(#soft)"/><ellipse cx="123" cy="227" rx="30" ry="22" fill="url(#g1)"/></g><ellipse cx="113.9" cy="218.9" rx="9.0" ry="4.0" transform="rotate(-25 113.9 218.9)" fill="#fff" opacity="0.5"/><g transform="rotate(93 322 226)"><ellipse cx="325" cy="231" rx="31" ry="23" fill="#000" opacity=".25" filter="url(#soft)"/><ellipse cx="322" cy="226" rx="30" ry="22" fill="url(#g1)"/></g><ellipse cx="313.3" cy="217.9" rx="9.0" ry="4.0" transform="rotate(-25 313.3 217.9)" fill="#fff" opacity="0.5"/><g transform="rotate(54 359 405)"><ellipse cx="362" cy="410" rx="31" ry="23" fill="#000" opacity=".25" filter="url(#soft)"/><ellipse cx="359" cy="405" rx="30" ry="22" fill="url(#k2)"/></g><ellipse cx="349.8" cy="397.0" rx="9.0" ry="4.0" transform="rotate(-25 349.8 397.0)" fill="#fff" opacity="0.5"/><g transform="rotate(139 292 339)"><ellipse cx="295" cy="344" rx="31" ry="23" fill="#000" opacity=".25" filter="url(#soft)"/><ellipse cx="292" cy="339" rx="30" ry="22" fill="url(#g1)"/></g><ellipse cx="283.3" cy="331.0" rx="9.0" ry="4.0" transform="rotate(-25 283.3 331.0)" fill="#fff" opacity="0.5"/><g transform="rotate(49 165 186)"><ellipse cx="168" cy="191" rx="31" ry="23" fill="#000" opacity=".25" filter="url(#soft)"/><ellipse cx="165" cy="186" rx="30" ry="22" fill="url(#k1)"/></g><ellipse cx="155.7" cy="177.8" rx="9.0" ry="4.0" transform="rotate(-25 155.7 177.8)" fill="#fff" opacity="0.5"/><g transform="rotate(35 287 210)"><ellipse cx="290" cy="215" rx="31" ry="23" fill="#000" opacity=".25" filter="url(#soft)"/><ellipse cx="287" cy="210" rx="30" ry="22" fill="url(#g1)"/></g><ellipse cx="278.0" cy="201.9" rx="9.0" ry="4.0" transform="rotate(-25 278.0 201.9)" fill="#fff" opacity="0.5"/><g transform="rotate(79 296 288)"><ellipse cx="299" cy="293" rx="31" ry="23" fill="#000" opacity=".25" filter="url(#soft)"/><ellipse cx="296" cy="288" rx="30" ry="22" fill="url(#g1)"/></g><ellipse cx="286.7" cy="280.0" rx="9.0" ry="4.0" transform="rotate(-25 286.7 280.0)" fill="#fff" opacity="0.5"/><g transform="rotate(33 356 207)"><ellipse cx="359" cy="212" rx="31" ry="23" fill="#000" opacity=".25" filter="url(#soft)"/><ellipse cx="356" cy="207" rx="30" ry="22" fill="url(#k1)"/></g><ellipse cx="346.6" cy="199.0" rx="9.0" ry="4.0" transform="rotate(-25 346.6 199.0)" fill="#fff" opacity="0.5"/><g transform="rotate(32 393 356)"><ellipse cx="396" cy="361" rx="31" ry="23" fill="#000" opacity=".25" filter="url(#soft)"/><ellipse cx="393" cy="356" rx="30" ry="22" fill="url(#k1)"/></g><ellipse cx="384.5" cy="347.6" rx="9.0" ry="4.0" transform="rotate(-25 384.5 347.6)" fill="#fff" opacity="0.5"/><g transform="rotate(8 213 165)"><ellipse cx="216" cy="170" rx="31" ry="23" fill="#000" opacity=".25" filter="url(#soft)"/><ellipse cx="213" cy="165" rx="30" ry="22" fill="url(#k1)"/></g><ellipse cx="204.0" cy="156.9" rx="9.0" ry="4.0" transform="rotate(-25 204.0 156.9)" fill="#fff" opacity="0.5"/><g transform="rotate(176 230 260)"><ellipse cx="233" cy="265" rx="31" ry="23" fill="#000" opacity=".25" filter="url(#soft)"/><ellipse cx="230" cy="260" rx="30" ry="22" fill="url(#k2)"/></g><ellipse cx="221.5" cy="251.7" rx="9.0" ry="4.0" transform="rotate(-25 221.5 251.7)" fill="#fff" opacity="0.5"/><g transform="rotate(10 108 279)"><ellipse cx="111" cy="284" rx="31" ry="23" fill="#000" opacity=".25" filter="url(#soft)"/><ellipse cx="108" cy="279" rx="30" ry="22" fill="url(#g2)"/></g><ellipse cx="99.0" cy="270.5" rx="9.0" ry="4.0" transform="rotate(-25 99.0 270.5)" fill="#fff" opacity="0.5"/><g transform="rotate(20 230 195)"><ellipse cx="233" cy="200" rx="31" ry="23" fill="#000" opacity=".25" filter="url(#soft)"/><ellipse cx="230" cy="195" rx="30" ry="22" fill="url(#g2)"/></g><ellipse cx="221.2" cy="186.8" rx="9.0" ry="4.0" transform="rotate(-25 221.2 186.8)" fill="#fff" opacity="0.5"/><g transform="rotate(87 166 421)"><ellipse cx="169" cy="426" rx="31" ry="23" fill="#000" opacity=".25" filter="url(#soft)"/><ellipse cx="166" cy="421" rx="30" ry="22" fill="url(#g2)"/></g><ellipse cx="156.8" cy="413.2" rx="9.0" ry="4.0" transform="rotate(-25 156.8 413.2)" fill="#fff" opacity="0.5"/><g transform="rotate(6 157 253)"><ellipse cx="160" cy="258" rx="31" ry="23" fill="#000" opacity=".25" filter="url(#soft)"/><ellipse cx="157" cy="253" rx="30" ry="22" fill="url(#g1)"/></g><ellipse cx="148.4" cy="245.4" rx="9.0" ry="4.0" transform="rotate(-25 148.4 245.4)" fill="#fff" opacity="0.5"/><g transform="rotate(63 356 275)"><ellipse cx="359" cy="280" rx="31" ry="23" fill="#000" opacity=".25" filter="url(#soft)"/><ellipse cx="356" cy="275" rx="30" ry="22" fill="url(#k2)"/></g><ellipse cx="347.3" cy="267.3" rx="9.0" ry="4.0" transform="rotate(-25 347.3 267.3)" fill="#fff" opacity="0.5"/><g transform="rotate(110 266 158)"><ellipse cx="269" cy="163" rx="31" ry="23" fill="#000" opacity=".25" filter="url(#soft)"/><ellipse cx="266" cy="158" rx="30" ry="22" fill="url(#k1)"/></g><ellipse cx="256.9" cy="150.2" rx="9.0" ry="4.0" transform="rotate(-25 256.9 150.2)" fill="#fff" opacity="0.5"/><g transform="rotate(37 315 432)"><ellipse cx="318" cy="437" rx="31" ry="23" fill="#000" opacity=".25" filter="url(#soft)"/><ellipse cx="315" cy="432" rx="30" ry="22" fill="url(#g1)"/></g><ellipse cx="306.1" cy="424.3" rx="9.0" ry="4.0" transform="rotate(-25 306.1 424.3)" fill="#fff" opacity="0.5"/><g transform="rotate(163 144 309)"><ellipse cx="147" cy="314" rx="31" ry="23" fill="#000" opacity=".25" filter="url(#soft)"/><ellipse cx="144" cy="309" rx="30" ry="22" fill="url(#k1)"/></g><ellipse cx="135.1" cy="301.3" rx="9.0" ry="4.0" transform="rotate(-25 135.1 301.3)" fill="#fff" opacity="0.5"/><g transform="rotate(63 99 326)"><ellipse cx="102" cy="331" rx="31" ry="23" fill="#000" opacity=".25" filter="url(#soft)"/><ellipse cx="99" cy="326" rx="30" ry="22" fill="url(#g1)"/></g><ellipse cx="90.5" cy="317.8" rx="9.0" ry="4.0" transform="rotate(-25 90.5 317.8)" fill="#fff" opacity="0.5"/><g transform="rotate(154 350 322)"><ellipse cx="353" cy="327" rx="31" ry="23" fill="#000" opacity=".25" filter="url(#soft)"/><ellipse cx="350" cy="322" rx="30" ry="22" fill="url(#k1)"/></g><ellipse cx="341.4" cy="313.5" rx="9.0" ry="4.0" transform="rotate(-25 341.4 313.5)" fill="#fff" opacity="0.5"/><g transform="rotate(124 255 307)"><ellipse cx="258" cy="312" rx="31" ry="23" fill="#000" opacity=".25" filter="url(#soft)"/><ellipse cx="255" cy="307" rx="30" ry="22" fill="url(#g1)"/></g><ellipse cx="246.2" cy="299.3" rx="9.0" ry="4.0" transform="rotate(-25 246.2 299.3)" fill="#fff" opacity="0.5"/><g transform="rotate(67 124 377)"><ellipse cx="127" cy="382" rx="31" ry="23" fill="#000" opacity=".25" filter="url(#soft)"/><ellipse cx="124" cy="377" rx="30" ry="22" fill="url(#g1)"/></g><ellipse cx="114.8" cy="369.4" rx="9.0" ry="4.0" transform="rotate(-25 114.8 369.4)" fill="#fff" opacity="0.5"/><g transform="rotate(99 266 260)"><ellipse cx="269" cy="265" rx="31" ry="23" fill="#000" opacity=".25" filter="url(#soft)"/><ellipse cx="266" cy="260" rx="30" ry="22" fill="url(#g1)"/></g><ellipse cx="257.5" cy="252.3" rx="9.0" ry="4.0" transform="rotate(-25 257.5 252.3)" fill="#fff" opacity="0.5"/><g transform="rotate(17 163 348)"><ellipse cx="166" cy="353" rx="31" ry="23" fill="#000" opacity=".25" filter="url(#soft)"/><ellipse cx="163" cy="348" rx="30" ry="22" fill="url(#k1)"/></g><ellipse cx="154.0" cy="339.9" rx="9.0" ry="4.0" transform="rotate(-25 154.0 339.9)" fill="#fff" opacity="0.5"/><g transform="rotate(92 187 214)"><ellipse cx="190" cy="219" rx="31" ry="23" fill="#000" opacity=".25" filter="url(#soft)"/><ellipse cx="187" cy="214" rx="30" ry="22" fill="url(#g1)"/></g><ellipse cx="177.9" cy="205.8" rx="9.0" ry="4.0" transform="rotate(-25 177.9 205.8)" fill="#fff" opacity="0.5"/><g transform="rotate(53 262 445)"><ellipse cx="265" cy="450" rx="31" ry="23" fill="#000" opacity=".25" filter="url(#soft)"/><ellipse cx="262" cy="445" rx="30" ry="22" fill="url(#g1)"/></g><ellipse cx="252.8" cy="437.2" rx="9.0" ry="4.0" transform="rotate(-25 252.8 437.2)" fill="#fff" opacity="0.5"/><g transform="rotate(147 234 410)"><ellipse cx="237" cy="415" rx="31" ry="23" fill="#000" opacity=".25" filter="url(#soft)"/><ellipse cx="234" cy="410" rx="30" ry="22" fill="url(#k1)"/></g><ellipse cx="225.4" cy="402.5" rx="9.0" ry="4.0" transform="rotate(-25 225.4 402.5)" fill="#fff" opacity="0.5"/><g transform="rotate(74 330 373)"><ellipse cx="333" cy="378" rx="31" ry="23" fill="#000" opacity=".25" filter="url(#soft)"/><ellipse cx="330" cy="373" rx="30" ry="22" fill="url(#k2)"/></g><ellipse cx="321.5" cy="365.2" rx="9.0" ry="4.0" transform="rotate(-25 321.5 365.2)" fill="#fff" opacity="0.5"/><g transform="rotate(116 207 450)"><ellipse cx="210" cy="455" rx="31" ry="23" fill="#000" opacity=".25" filter="url(#soft)"/><ellipse cx="207" cy="450" rx="30" ry="22" fill="url(#g1)"/></g><ellipse cx="198.4" cy="442.0" rx="9.0" ry="4.0" transform="rotate(-25 198.4 442.0)" fill="#fff" opacity="0.5"/><g transform="rotate(84 288 397)"><ellipse cx="291" cy="402" rx="31" ry="23" fill="#000" opacity=".25" filter="url(#soft)"/><ellipse cx="288" cy="397" rx="30" ry="22" fill="url(#k1)"/></g><ellipse cx="279.5" cy="389.5" rx="9.0" ry="4.0" transform="rotate(-25 279.5 389.5)" fill="#fff" opacity="0.5"/><g transform="rotate(107 312 169)"><ellipse cx="315" cy="174" rx="31" ry="23" fill="#000" opacity=".25" filter="url(#soft)"/><ellipse cx="312" cy="169" rx="30" ry="22" fill="url(#g2)"/></g><ellipse cx="302.9" cy="161.0" rx="9.0" ry="4.0" transform="rotate(-25 302.9 161.0)" fill="#fff" opacity="0.5"/><g transform="rotate(86 187 389)"><ellipse cx="190" cy="394" rx="31" ry="23" fill="#000" opacity=".25" filter="url(#soft)"/><ellipse cx="187" cy="389" rx="30" ry="22" fill="url(#g1)"/></g><ellipse cx="178.2" cy="380.8" rx="9.0" ry="4.0" transform="rotate(-25 178.2 380.8)" fill="#fff" opacity="0.5"/><g transform="rotate(174 210 338)"><ellipse cx="213" cy="343" rx="31" ry="23" fill="#000" opacity=".25" filter="url(#soft)"/><ellipse cx="210" cy="338" rx="30" ry="22" fill="url(#g2)"/></g><ellipse cx="201.0" cy="330.2" rx="9.0" ry="4.0" transform="rotate(-25 201.0 330.2)" fill="#fff" opacity="0.5"/><ellipse cx="110" cy="560" rx="30" ry="22" fill="url(#k1)"/><ellipse cx="101.0" cy="552.0" rx="9.0" ry="4.0" transform="rotate(-25 101.0 552.0)" fill="#fff" opacity="0.5"/><ellipse cx="395" cy="540" rx="30" ry="22" fill="url(#g1)"/><ellipse cx="386.0" cy="532.0" rx="9.0" ry="4.0" transform="rotate(-25 386.0 532.0)" fill="#fff" opacity="0.5"/><ellipse cx="70" cy="80" rx="30" ry="22" fill="url(#g2)"/><ellipse cx="61.0" cy="72.0" rx="9.0" ry="4.0" transform="rotate(-25 61.0 72.0)" fill="#fff" opacity="0.5"/><rect width="800" height="600" fill="url(#vig)"/></svg>
